# xmcd
#
# Track frame offsets: 
#        180
#        14292
#        28839
#        38539
#        53847
#        67032
#        80408
#        98971
#        110424
#        122355
#        134755
#        149300
#
# Disc length: 2130 seconds
#
# Revision: 0
# Processed by: cddbd v1.5.2PL0 Copyright (c) Steve Scherf et al.
# Submitted via: ExactAudioCopy v1.0b2
#
DISCID=a208500c
DTITLE=ALFREDO DE ÁNGELIS Y SU ORQUESTA - HUGO DEL CARRIL - ÉXITOS DE 
DTITLE=SIEMPRE
DYEAR=1900
DGENRE=Tango
TTITLE0=OBSESIÓN
TTITLE1=Hugo del Carril con la Orquesta de Atilio Bruni - ADIÓS PAMPA 
TTITLE1=MÍA
TTITLE2=Orquesta de Miguel Caló - A MEDIA LUZ
TTITLE3=LA PASTORA
TTITLE4=Oscar Larroca con Orquesta - CAMINITO
TTITLE5=Jorge Valdés y su Orquesta - PERCAL
TTITLE6=Hugo del Carril con la Orquesta de Atilio Bruni - EL DÍA QUE M
TTITLE6=E QUIERAS
TTITLE7=ILUSIÓN AZUL
TTITLE8=Hugo del Carril con la Orquesta de Atilio Bruni - LA CUMPARCIT
TTITLE8=A
TTITLE9=Orquesta de Miguel Caló - NADA
TTITLE10=Hugo del Carril con la Orquesta de Waldo de los Ríos - CONFES
TTITLE10=IÓN
TTITLE11=Mario Bustos y su Orquesta - ME HAN PROHIBIDO QUERERTE
EXTD=
EXTT0=
EXTT1=
EXTT2=
EXTT3=
EXTT4=
EXTT5=
EXTT6=
EXTT7=
EXTT8=
EXTT9=
EXTT10=
EXTT11=
PLAYORDER=
